<svg width="32" height="28" viewBox="0 0 32 28" fill="none" xmlns="http://www.w3.org/2000/svg">
<path d="M5.11038 2.72103L0.806264 10.7771C0.269142 11.7854 0 12.8919 0 13.9999C0 15.1081 0.269142 16.2145 0.806264 17.2228L5.11038 25.279C5.9037 26.767 7.45516 27.6964 9.14352 27.6964H13.7153V25.4143H13.7138C12.8704 25.4143 12.0946 24.9502 11.6979 24.2063L7.39543 16.1485C7.03585 15.4769 6.85665 14.7392 6.85665 13.9999C6.85665 13.2607 7.03585 12.523 7.39543 11.8515L11.6979 3.79375C12.0946 3.04966 12.8704 2.5858 13.7138 2.5858H13.7153V0.303467H9.14352C7.45516 0.303467 5.9037 1.233 5.11038 2.72103Z" fill="white"/>
<path d="M31.1937 10.7772L26.8898 2.72109C26.0963 1.2329 24.545 0.303526 22.8567 0.303526H18.2847V2.58569H18.2864C19.1298 2.58569 19.9055 3.04971 20.3021 3.79364L24.6046 11.8514C24.9643 12.5231 25.1432 13.2607 25.1432 14C25.1432 14.7393 24.9643 15.4769 24.6046 16.1486L20.3021 24.2062C19.9055 24.9503 19.1298 25.4141 18.2864 25.4141H18.2847V27.6965H22.8567C24.545 27.6965 26.0963 26.7671 26.8898 25.2789L31.1937 17.2228C31.7307 16.2146 32 15.108 32 14C32 12.892 31.7307 11.7855 31.1937 10.7772Z" fill="white"/>
</svg>
